<svg xmlns="http://www.w3.org/2000/svg" viewBox="0 0 900 1200" width="900" height="1200">
  <!-- Background -->
  <rect width="900" height="1200" fill="#f5f5f5"/>
  
  <!-- Title Section -->
  <rect x="50" y="30" width="800" height="80" rx="5" fill="#294c7a"/>
  <text x="450" y="75" font-family="Arial" font-size="32" font-weight="bold" fill="white" text-anchor="middle">Dr. Burger Digital Maturity Assessment</text>
  <text x="450" y="100" font-family="Arial" font-size="16" fill="white" text-anchor="middle">March 2025</text>
  
  <!-- Executive Summary -->
  <rect x="50" y="130" width="380" height="200" rx="5" fill="white" stroke="#294c7a" stroke-width="2"/>
  <text x="60" y="155" font-family="Arial" font-size="20" font-weight="bold" fill="#294c7a">Executive Summary</text>
  <text x="60" y="185" font-family="Arial" font-size="16" fill="#333">Current Maturity: Level 2 (Emerging)</text>
  
  <!-- Current Maturity Progress Bar -->
  <rect x="60" y="200" width="250" height="20" rx="10" fill="#e0e0e0"/>
  <rect x="60" y="200" width="100" height="20" rx="10" fill="#f0ad4e"/>
  <circle cx="110" cy="210" r="10" fill="#294c7a"/>
  <text x="110" cy="210" font-family="Arial" font-size="12" fill="white" text-anchor="middle" dominant-baseline="middle">2</text>
  
  <text x="60" y="240" font-family="Arial" font-size="16" fill="#333">Target Maturity: Level 4 (Leading)</text>
  
  <!-- Target Maturity Progress Bar -->
  <rect x="60" y="255" width="250" height="20" rx="10" fill="#e0e0e0"/>
  <rect x="60" y="255" width="200" height="20" rx="10" fill="#5cb85c"/>
  <circle cx="210" cy="265" r="10" fill="#294c7a"/>
  <text x="210" cy="265" font-family="Arial" font-size="12" fill="white" text-anchor="middle" dominant-baseline="middle">4</text>
  
  <text x="60" y="290" font-family="Arial" font-size="14" fill="#333">Key focus: Customer Experience, Data, Tech</text>
  <text x="60" y="310" font-family="Arial" font-size="14" fill="#333">Implementation: 24-month roadmap</text>
  
  <!-- Methodology -->
  <rect x="50" y="350" width="380" height="220" rx="5" fill="white" stroke="#294c7a" stroke-width="2"/>
  <text x="60" y="375" font-family="Arial" font-size="20" font-weight="bold" fill="#294c7a">Assessment Methodology</text>
  <text x="60" y="405" font-family="Arial" font-size="16" fill="#333">Six Dimensions:</text>
  
  <!-- Dimensions List -->
  <text x="80" y="430" font-family="Arial" font-size="14" fill="#333">• Customer Experience</text>
  <text x="80" y="455" font-family="Arial" font-size="14" fill="#333">• Operations and Supply Chain</text>
  <text x="80" y="480" font-family="Arial" font-size="14" fill="#333">• Data and Analytics</text>
  <text x="80" y="505" font-family="Arial" font-size="14" fill="#333">• Technology Architecture</text>
  <text x="80" y="530" font-family="Arial" font-size="14" fill="#333">• Organization and Culture</text>
  <text x="80" y="555" font-family="Arial" font-size="14" fill="#333">• Innovation and Strategy</text>
  
  <!-- Current State Assessment -->
  <rect x="450" y="130" width="400" height="440" rx="5" fill="white" stroke="#294c7a" stroke-width="2"/>
  <text x="460" y="155" font-family="Arial" font-size="20" font-weight="bold" fill="#294c7a">Current State Assessment</text>
  <text x="460" y="180" font-family="Arial" font-size="16" fill="#333">Overall: Level 2 (Emerging)</text>
  
  <!-- Customer Experience Section -->
  <rect x="460" y="195" width="380" height="100" rx="5" fill="#f8f9fa" stroke="#ddd" stroke-width="1"/>
  <text x="470" y="215" font-family="Arial" font-size="16" font-weight="bold" fill="#294c7a">1. Customer Experience (L2)</text>
  
  <!-- Strengths -->
  <text x="470" y="235" font-family="Arial" font-size="14" fill="#333">Strengths:</text>
  <circle cx="550" cy="235" r="6" fill="#5cb85c"/>
  <text x="560" y="235" font-family="Arial" font-size="12" fill="#333">Basic mobile app</text>
  <circle cx="650" cy="235" r="6" fill="#5cb85c"/>
  <text x="660" y="235" font-family="Arial" font-size="12" fill="#333">Digital payments</text>
  
  <!-- Gaps -->
  <text x="470" y="255" font-family="Arial" font-size="14" fill="#333">Gaps:</text>
  <circle cx="550" cy="255" r="6" fill="#d9534f"/>
  <text x="560" y="255" font-family="Arial" font-size="12" fill="#333">Limited personalization</text>
  <circle cx="680" cy="255" r="6" fill="#d9534f"/>
  <text x="690" y="255" font-family="Arial" font-size="12" fill="#333">Siloed data</text>
  
  <!-- Evidence -->
  <text x="470" y="275" font-family="Arial" font-size="14" fill="#333">Evidence:</text>
  <text x="530" y="275" font-family="Arial" font-size="12" fill="#666">App rating 3.2/5, Digital orders 18%</text>
  
  <!-- Data & Analytics Section -->
  <rect x="460" y="305" width="380" height="100" rx="5" fill="#f8f9fa" stroke="#ddd" stroke-width="1"/>
  <text x="470" y="325" font-family="Arial" font-size="16" font-weight="bold" fill="#294c7a">2. Data and Analytics (L1)</text>
  
  <!-- Strengths -->
  <text x="470" y="345" font-family="Arial" font-size="14" fill="#333">Strengths:</text>
  <circle cx="550" cy="345" r="6" fill="#5cb85c"/>
  <text x="560" y="345" font-family="Arial" font-size="12" fill="#333">Basic data collection</text>
  
  <!-- Gaps -->
  <text x="470" y="365" font-family="Arial" font-size="14" fill="#333">Gaps:</text>
  <circle cx="550" cy="365" r="6" fill="#d9534f"/>
  <text x="560" y="365" font-family="Arial" font-size="12" fill="#333">No centralized data strategy</text>
  <circle cx="700" cy="365" r="6" fill="#d9534f"/>
  <text x="710" y="365" font-family="Arial" font-size="12" fill="#333">Siloed data</text>
  
  <!-- Evidence -->
  <text x="470" y="385" font-family="Arial" font-size="14" fill="#333">Evidence:</text>
  <text x="530" y="385" font-family="Arial" font-size="12" fill="#666">85% decisions without data input</text>
  
  <!-- Technology Section -->
  <rect x="460" y="415" width="380" height="100" rx="5" fill="#f8f9fa" stroke="#ddd" stroke-width="1"/>
  <text x="470" y="435" font-family="Arial" font-size="16" font-weight="bold" fill="#294c7a">3. Technology Architecture (L2)</text>
  
  <!-- Strengths -->
  <text x="470" y="455" font-family="Arial" font-size="14" fill="#333">Strengths:</text>
  <circle cx="550" cy="455" r="6" fill="#5cb85c"/>
  <text x="560" y="455" font-family="Arial" font-size="12" fill="#333">Modern POS system</text>
  
  <!-- Gaps -->
  <text x="470" y="475" font-family="Arial" font-size="14" fill="#333">Gaps:</text>
  <circle cx="550" cy="475" r="6" fill="#d9534f"/>
  <text x="560" y="475" font-family="Arial" font-size="12" fill="#333">Limited API ecosystem</text>
  <circle cx="680" cy="475" r="6" fill="#d9534f"/>
  <text x="690" y="475" font-family="Arial" font-size="12" fill="#333">Legacy systems</text>
  
  <!-- Evidence -->
  <text x="470" y="495" font-family="Arial" font-size="14" fill="#333">Evidence:</text>
  <text x="530" y="495" font-family="Arial" font-size="12" fill="#666">65% budget on legacy maintenance</text>
  
  <!-- Maturity Gap Analysis -->
  <rect x="50" y="590" width="380" height="260" rx="5" fill="white" stroke="#294c7a" stroke-width="2"/>
  <text x="60" y="615" font-family="Arial" font-size="20" font-weight="bold" fill="#294c7a">Maturity Gap Analysis</text>
  <text x="60" y="640" font-family="Arial" font-size="16" fill="#333">Critical Capability Gaps:</text>
  
  <!-- Gap 1 -->
  <rect x="60" y="650" width="360" height="40" rx="5" fill="#f8f9fa" stroke="#ddd" stroke-width="1"/>
  <text x="70" y="675" font-family="Arial" font-size="14" font-weight="bold" fill="#333">Personalization Engine</text>
  <text x="220" y="675" font-family="Arial" font-size="12" fill="#666">L2 → L4</text>
  <rect x="280" y="665" width="130" height="20" rx="10" fill="#e0e0e0"/>
  <rect x="280" y="665" width="65" height="20" rx="10" fill="#f0ad4e"/>
  <rect x="345" y="665" width="65" height="20" rx="10" fill="#5cb85c"/>
  
  <!-- Gap 2 -->
  <rect x="60" y="700" width="360" height="40" rx="5" fill="#f8f9fa" stroke="#ddd" stroke-width="1"/>
  <text x="70" y="725" font-family="Arial" font-size="14" font-weight="bold" fill="#333">Data Democratization</text>
  <text x="220" y="725" font-family="Arial" font-size="12" fill="#666">L1 → L4</text>
  <rect x="280" y="715" width="130" height="20" rx="10" fill="#e0e0e0"/>
  <rect x="280" y="715" width="45" height="20" rx="10" fill="#d9534f"/>
  <rect x="325" y="715" width="85" height="20" rx="10" fill="#5cb85c"/>
  
  <!-- Gap 3 -->
  <rect x="60" y="750" width="360" height="40" rx="5" fill="#f8f9fa" stroke="#ddd" stroke-width="1"/>
  <text x="70" y="775" font-family="Arial" font-size="14" font-weight="bold" fill="#333">API Ecosystem</text>
  <text x="220" y="775" font-family="Arial" font-size="12" fill="#666">L2 → L4</text>
  <rect x="280" y="765" width="130" height="20" rx="10" fill="#e0e0e0"/>
  <rect x="280" y="765" width="65" height="20" rx="10" fill="#f0ad4e"/>
  <rect x="345" y="765" width="65" height="20" rx="10" fill="#5cb85c"/>
  
  <!-- Gap 4 -->
  <rect x="60" y="800" width="360" height="40" rx="5" fill="#f8f9fa" stroke="#ddd" stroke-width="1"/>
  <text x="70" y="825" font-family="Arial" font-size="14" font-weight="bold" fill="#333">Agile Ways of Working</text>
  <text x="220" y="825" font-family="Arial" font-size="12" fill="#666">L2 → L4</text>
  <rect x="280" y="815" width="130" height="20" rx="10" fill="#e0e0e0"/>
  <rect x="280" y="815" width="65" height="20" rx="10" fill="#f0ad4e"/>
  <rect x="345" y="815" width="65" height="20" rx="10" fill="#5cb85c"/>
  
  <!-- Implementation Roadmap -->
  <rect x="450" y="590" width="400" height="260" rx="5" fill="white" stroke="#294c7a" stroke-width="2"/>
  <text x="460" y="615" font-family="Arial" font-size="20" font-weight="bold" fill="#294c7a">Implementation Roadmap</text>

  <!-- Phase Timeline -->
  <line x1="460" y1="640" x2="830" y2="640" stroke="#294c7a" stroke-width="3"/>
  
  <!-- Phase 1 -->
  <circle cx="505" cy="640" r="10" fill="#294c7a"/>
  <text x="505" y="625" font-family="Arial" font-size="12" fill="#333" text-anchor="middle">Phase 1</text>
  <text x="505" y="665" font-family="Arial" font-size="10" fill="#333" text-anchor="middle">Months 1-6</text>
  <rect x="460" y="675" width="105" height="60" rx="5" fill="#f8f9fa" stroke="#ddd" stroke-width="1"/>
  <text x="512" y="700" font-family="Arial" font-size="12" fill="#333" text-anchor="middle">Foundation</text>
  <text x="512" y="720" font-family="Arial" font-size="10" fill="#666" text-anchor="middle">Mobile App, Cloud POS</text>
  
  <!-- Phase 2 -->
  <circle cx="615" cy="640" r="10" fill="#294c7a"/>
  <text x="615" y="625" font-family="Arial" font-size="12" fill="#333" text-anchor="middle">Phase 2</text>
  <text x="615" y="665" font-family="Arial" font-size="10" fill="#333" text-anchor="middle">Months 7-12</text>
  <rect x="565" y="675" width="105" height="60" rx="5" fill="#f8f9fa" stroke="#ddd" stroke-width="1"/>
  <text x="617" y="700" font-family="Arial" font-size="12" fill="#333" text-anchor="middle">Expansion</text>
  <text x="617" y="720" font-family="Arial" font-size="10" fill="#666" text-anchor="middle">Loyalty, CDP</text>
  
  <!-- Phase 3 -->
  <circle cx="725" cy="640" r="10" fill="#294c7a"/>
  <text x="725" y="625" font-family="Arial" font-size="12" fill="#333" text-anchor="middle">Phase 3</text>
  <text x="725" y="665" font-family="Arial" font-size="10" fill="#333" text-anchor="middle">Months 13-18</text>
  <rect x="670" y="675" width="105" height="60" rx="5" fill="#f8f9fa" stroke="#ddd" stroke-width="1"/>
  <text x="722" y="700" font-family="Arial" font-size="12" fill="#333" text-anchor="middle">Optimization</text>
  <text x="722" y="720" font-family="Arial" font-size="10" fill="#666" text-anchor="middle">AI, Subscription</text>
  
  <!-- Phase 4 -->
  <circle cx="835" cy="640" r="10" fill="#294c7a"/>
  <text x="835" y="625" font-family="Arial" font-size="12" fill="#333" text-anchor="middle">Phase 4</text>
  <text x="835" y="665" font-family="Arial" font-size="10" fill="#333" text-anchor="middle">Months 19-24</text>
  <rect x="775" y="675" width="105" height="60" rx="5" fill="#f8f9fa" stroke="#ddd" stroke-width="1"/>
  <text x="827" y="700" font-family="Arial" font-size="12" fill="#333" text-anchor="middle">Innovation</text>
  <text x="827" y="720" font-family="Arial" font-size="10" fill="#666" text-anchor="middle">Predictive, Virtual</text>
  
  <!-- Maturity Level Progress -->
  <text x="460" y="750" font-family="Arial" font-size="14" fill="#333">Maturity Progress:</text>
  <rect x="460" y="760" width="370" height="30" rx="5" fill="#f8f9fa" stroke="#ddd" stroke-width="1"/>
  <text x="470" y="780" font-family="Arial" font-size="12" fill="#333">Level 2</text>
  <text x="580" y="780" font-family="Arial" font-size="12" fill="#333">Level 3</text>
  <text x="700" y="780" font-family="Arial" font-size="12" fill="#333">Level 4</text>
  <text x="820" y="780" font-family="Arial" font-size="12" fill="#333">Level 4+</text>
  <line x1="460" y1="790" x2="830" y2="790" stroke="#e0e0e0" stroke-width="5"/>
  <line x1="460" y1="790" x2="505" y2="790" stroke="#f0ad4e" stroke-width="5"/>
  <line x1="505" y1="790" x2="615" y2="790" stroke="#5bc0de" stroke-width="5"/>
  <line x1="615" y1="790" x2="725" y2="790" stroke="#5cb85c" stroke-width="5" stroke-dasharray="5,2"/>
  <line x1="725" y1="790" x2="830" y2="790" stroke="#5cb85c" stroke-width="5" stroke-dasharray="5,2"/>
  <circle cx="505" cy="790" r="8" fill="#294c7a"/>
  <circle cx="615" cy="790" r="8" fill="#294c7a"/>
  <circle cx="725" cy="790" r="8" fill="#294c7a"/>
  <circle cx="830" cy="790" r="8" fill="#294c7a"/>
  
  <!-- Key Investments -->
  <rect x="50" y="870" width="380" height="260" rx="5" fill="white" stroke="#294c7a" stroke-width="2"/>
  <text x="60" y="895" font-family="Arial" font-size="20" font-weight="bold" fill="#294c7a">Key Investments Required</text>
  
  <!-- Technology Investments -->
  <text x="60" y="925" font-family="Arial" font-size="16" font-weight="bold" fill="#333">Technology:</text>
  <text x="60" y="950" font-family="Arial" font-size="14" fill="#333">• Customer Data Platform: $1.2M</text>
  <text x="60" y="975" font-family="Arial" font-size="14" fill="#333">• API Management Platform: $0.8M</text>
  <text x="60" y="1000" font-family="Arial" font-size="14" fill="#333">• Cloud Infrastructure: $2.5M</text>
  <text x="60" y="1025" font-family="Arial" font-size="14" fill="#333">• Analytics and AI Platform: $1.5M</text>
  
  <!-- People Investments -->
  <text x="60" y="1055" font-family="Arial" font-size="16" font-weight="bold" fill="#333">People and Process:</text>
  <text x="60" y="1080" font-family="Arial" font-size="14" fill="#333">• Digital Skills Development: $1.0M</text>
  <text x="60" y="1105" font-family="Arial" font-size="14" fill="#333">• Agile Transformation: $0.7M</text>
  
  <!-- KPIs -->
  <rect x="450" y="870" width="400" height="260" rx="5" fill="white" stroke="#294c7a" stroke-width="2"/>
  <text x="460" y="895" font-family="Arial" font-size="20" font-weight="bold" fill="#294c7a">Key Performance Indicators</text>
  
  <!-- Customer Experience KPIs -->
  <text x="460" y="925" font-family="Arial" font-size="16" font-weight="bold" fill="#333">Customer Experience:</text>
  
  <!-- Digital Channel Adoption -->
  <text x="460" y="950" font-family="Arial" font-size="14" fill="#333">Digital Channel Adoption: 65% Target</text>
  <rect x="460" y="960" width="250" height="15" rx="7" fill="#e0e0e0"/>
  <rect x="460" y="960" width="75" height="15" rx="7" fill="#5cb85c"/>
  <text x="740" y="965" font-family="Arial" font-size="12" fill="#333">Currently: 18%</text>
  
  <!-- Operations KPIs -->
  <text x="460" y="990" font-family="Arial" font-size="16" font-weight="bold" fill="#333">Operations and Efficiency:</text>
  
  <!-- Process Automation -->
  <text x="460" y="1015" font-family="Arial" font-size="14" fill="#333">Digital Process Automation: 70% Target</text>
  <rect x="460" y="1025" width="250" height="15" rx="7" fill="#e0e0e0"/>
  <rect x="460" y="1025" width="50" height="15" rx="7" fill="#f0ad4e"/>
  <text x="740" y="1030" font-family="Arial" font-size="12" fill="#333">Currently: 15%</text>
  
  <!-- Business Impact KPIs -->
  <text x="460" y="1055" font-family="Arial" font-size="16" font-weight="bold" fill="#333">Business Impact:</text>
  
  <!-- Digital Revenue -->
  <text x="460" y="1080" font-family="Arial" font-size="14" fill="#333">Revenue from Digital: 50% Target</text>
  <rect x="460" y="1090" width="250" height="15" rx="7" fill="#e0e0e0"/>
  <rect x="460" y="1090" width="30" height="15" rx="7" fill="#d9534f"/>
  <text x="740" y="1095" font-family="Arial" font-size="12" fill="#333">Currently: 8.7%</text>
  
  <!-- Conclusion -->
  <rect x="50" y="1150" width="800" height="30" rx="5" fill="#294c7a"/>
  <text x="450" y="1170" font-family="Arial" font-size="16" font-weight="bold" fill="white" text-anchor="middle">Transform from "Emerging" (L2) to "Leading" (L4) digital maturity within 24 months</text>
</svg>